<svg width="65" height="65" viewBox="0 0 65 65" fill="none" xmlns="http://www.w3.org/2000/svg">
<g clip-path="url(#clip0)">
<path d="M54.1666 0H10.8333C9.03839 0 7.58331 1.45507 7.58331 3.25V61.75C7.58331 63.5449 9.03839 65 10.8333 65H54.1666C55.9616 65 57.4166 63.5449 57.4166 61.75V3.25C57.4166 1.45507 55.9616 0 54.1666 0ZM54.1666 62.8333H10.8333C10.235 62.8333 9.74998 62.3483 9.74998 61.75V34.0318L17.4601 26.325C18.0749 25.7149 18.4195 24.8837 18.4166 24.0175V15.0583C21.1412 14.5022 23.002 11.9733 22.7226 9.20668C22.4431 6.44004 20.114 4.33444 17.3333 4.33444C14.5526 4.33444 12.2236 6.44004 11.9441 9.20668C11.6646 11.9733 13.5254 14.5022 16.25 15.0583V24.0175C16.2496 24.3081 16.1325 24.5865 15.925 24.7899L9.74998 30.9682V3.25C9.74998 2.65169 10.235 2.16667 10.8333 2.16667H54.1666C54.765 2.16667 55.25 2.65169 55.25 3.25V30.9682L47.5399 38.675C46.925 39.2851 46.5805 40.1163 46.5833 40.9825V49.9417C43.8588 50.4978 41.9979 53.0267 42.2774 55.7933C42.5569 58.56 44.8859 60.6656 47.6666 60.6656C50.4474 60.6656 52.7764 58.56 53.0559 55.7933C53.3354 53.0267 51.4745 50.4978 48.75 49.9417V40.9825C48.7503 40.6919 48.8674 40.4135 49.075 40.2101L55.25 34.0351V61.75C55.25 62.3483 54.765 62.8333 54.1666 62.8333ZM17.3333 13C15.5384 13 14.0833 11.5449 14.0833 9.75C14.0833 7.95507 15.5384 6.5 17.3333 6.5C19.1282 6.5 20.5833 7.95507 20.5833 9.75C20.5833 10.612 20.2409 11.4386 19.6314 12.0481C19.0219 12.6576 18.1953 13 17.3333 13ZM47.6666 52C49.4616 52 50.9166 53.4551 50.9166 55.25C50.9166 57.0449 49.4616 58.5 47.6666 58.5C45.8717 58.5 44.4166 57.0449 44.4166 55.25C44.4166 53.4551 45.8717 52 47.6666 52Z" fill="white"/>
<path d="M17.3333 10.8334C17.9316 10.8334 18.4167 10.3483 18.4167 9.75002C18.4167 9.15171 17.9316 8.66669 17.3333 8.66669C16.735 8.66669 16.25 9.15171 16.25 9.75002C16.25 10.3483 16.735 10.8334 17.3333 10.8334Z" fill="white"/>
<path d="M32.5 10.8334C33.0983 10.8334 33.5833 10.3483 33.5833 9.75002C33.5833 9.15171 33.0983 8.66669 32.5 8.66669C31.9016 8.66669 31.4166 9.15171 31.4166 9.75002C31.4166 10.3483 31.9016 10.8334 32.5 10.8334Z" fill="white"/>
<path d="M47.6666 10.8334C48.2649 10.8334 48.75 10.3483 48.75 9.75002C48.75 9.15171 48.2649 8.66669 47.6666 8.66669C47.0683 8.66669 46.5833 9.15171 46.5833 9.75002C46.5833 10.3483 47.0683 10.8334 47.6666 10.8334Z" fill="white"/>
<path d="M18.4166 49.9417V40.9815C18.4164 40.6938 18.5306 40.4178 18.734 40.2145L32.6311 26.3175C33.2431 25.7093 33.586 24.8814 33.5833 24.0186V15.0584C36.3078 14.5022 38.1687 11.9734 37.8892 9.20672C37.6097 6.44007 35.2807 4.33447 32.5 4.33447C29.7192 4.33447 27.3902 6.44007 27.1107 9.20672C26.8312 11.9734 28.6921 14.5022 31.4166 15.0584V24.0197C31.4169 24.3074 31.3027 24.5833 31.0992 24.7867L17.2022 38.6826C16.5902 39.2907 16.2472 40.1187 16.25 40.9815V49.9417C13.5254 50.4978 11.6646 53.0267 11.9441 55.7934C12.2235 58.56 14.5526 60.6656 17.3333 60.6656C20.114 60.6656 22.443 58.56 22.7225 55.7934C23.002 53.0267 21.1412 50.4978 18.4166 49.9417ZM29.25 9.75003C29.25 7.95511 30.705 6.50003 32.5 6.50003C34.2949 6.50003 35.75 7.95511 35.75 9.75003C35.75 11.545 34.2949 13 32.5 13C30.705 13 29.25 11.545 29.25 9.75003ZM17.3333 58.5C15.5384 58.5 14.0833 57.045 14.0833 55.25C14.0833 53.4551 15.5384 52 17.3333 52C19.1282 52 20.5833 53.4551 20.5833 55.25C20.5833 57.045 19.1282 58.5 17.3333 58.5Z" fill="white"/>
<path d="M17.3333 56.3333C17.9316 56.3333 18.4167 55.8483 18.4167 55.25C18.4167 54.6517 17.9316 54.1667 17.3333 54.1667C16.735 54.1667 16.25 54.6517 16.25 55.25C16.25 55.8483 16.735 56.3333 17.3333 56.3333Z" fill="white"/>
<path d="M33.5833 49.9417V40.9815C33.5831 40.6938 33.6973 40.4178 33.9007 40.2145L47.7977 26.3175C48.4098 25.7093 48.7527 24.8814 48.75 24.0186V15.0584C51.4745 14.5022 53.3354 11.9734 53.0559 9.20672C52.7764 6.44007 50.4474 4.33447 47.6666 4.33447C44.8859 4.33447 42.5569 6.44007 42.2774 9.20672C41.9979 11.9734 43.8588 14.5022 46.5833 15.0584V24.0197C46.5835 24.3074 46.4693 24.5833 46.2659 24.7867L32.3689 38.6826C31.7569 39.2907 31.4139 40.1187 31.4166 40.9815V49.9417C28.6921 50.4978 26.8313 53.0267 27.1107 55.7934C27.3902 58.56 29.7193 60.6656 32.5 60.6656C35.2807 60.6656 37.6097 58.56 37.8892 55.7934C38.1687 53.0267 36.3079 50.4978 33.5833 49.9417ZM44.4166 9.75003C44.4166 7.95511 45.8717 6.50003 47.6666 6.50003C49.4616 6.50003 50.9167 7.95511 50.9167 9.75003C50.9167 11.545 49.4616 13 47.6666 13C45.8717 13 44.4166 11.545 44.4166 9.75003ZM32.5 58.5C30.7051 58.5 29.25 57.045 29.25 55.25C29.25 53.4551 30.7051 52 32.5 52C34.2949 52 35.75 53.4551 35.75 55.25C35.75 57.045 34.2949 58.5 32.5 58.5Z" fill="white"/>
<path d="M32.5 56.3333C33.0983 56.3333 33.5833 55.8483 33.5833 55.25C33.5833 54.6517 33.0983 54.1667 32.5 54.1667C31.9016 54.1667 31.4166 54.6517 31.4166 55.25C31.4166 55.8483 31.9016 56.3333 32.5 56.3333Z" fill="white"/>
<path d="M47.6666 56.3333C48.2649 56.3333 48.75 55.8483 48.75 55.25C48.75 54.6517 48.2649 54.1667 47.6666 54.1667C47.0683 54.1667 46.5833 54.6517 46.5833 55.25C46.5833 55.8483 47.0683 56.3333 47.6666 56.3333Z" fill="white"/>
</g>
<defs>
<clipPath id="clip0">
<rect width="65" height="65" fill="white"/>
</clipPath>
</defs>
</svg>
