<svg width="56" height="45" viewBox="0 0 56 45" fill="none" xmlns="http://www.w3.org/2000/svg">
<g clip-path="url(#clip0)">
<path d="M24.4033 44.9568L19.0658 43.4011C18.5058 43.2429 18.1908 42.654 18.3483 42.0915L30.292 0.765348C30.4495 0.202848 31.0358 -0.113558 31.5958 0.0446453L36.9333 1.60031C37.4933 1.75851 37.8083 2.34738 37.6508 2.90988L25.707 44.2361C25.5408 44.7986 24.9633 45.1238 24.4033 44.9568ZM14.4283 35.0954L18.2345 31.0173C18.637 30.5866 18.6108 29.9011 18.1645 29.5056L10.237 22.5007L18.1645 15.4958C18.6108 15.1003 18.6458 14.4148 18.2345 13.9841L14.4283 9.90597C14.0345 9.4841 13.3695 9.45773 12.9408 9.86203L0.332029 21.7273C-0.114221 22.1404 -0.114221 22.8523 0.332029 23.2654L12.9408 35.1394C13.3695 35.5437 14.0345 35.5261 14.4283 35.0954ZM43.0583 35.1482L55.667 23.2741C56.1133 22.8611 56.1133 22.1491 55.667 21.7361L43.0583 9.85324C42.6383 9.45773 41.9733 9.47531 41.5708 9.89718L37.7645 13.9753C37.362 14.406 37.3883 15.0915 37.8345 15.487L45.762 22.5007L37.8345 29.5056C37.3883 29.9011 37.3533 30.5866 37.7645 31.0173L41.5708 35.0954C41.9645 35.5261 42.6295 35.5437 43.0583 35.1482Z" fill="white"/>
</g>
<defs>
<clipPath id="clip0">
<rect width="56" height="45" fill="white"/>
</clipPath>
</defs>
</svg>
