<svg width="42" height="48" viewBox="0 0 42 48" fill="none" xmlns="http://www.w3.org/2000/svg">
<path d="M37.5 0H4.5C2.01562 0 0 2.01562 0 4.5V37.5C0 39.9844 2.01562 42 4.5 42H37.5C39.9844 42 42 39.9844 42 37.5V4.5C42 2.01562 39.9844 0 37.5 0ZM25.9969 35.9719C25.2094 36.1125 24.9187 35.625 24.9187 35.2219C24.9187 34.7156 24.9375 32.1281 24.9375 30.0375C24.9375 28.575 24.45 27.6469 23.8781 27.1594C27.3469 26.775 31.0031 26.2969 31.0031 20.3063C31.0031 18.6 30.3938 17.7469 29.4 16.65C29.5594 16.2469 30.0938 14.5875 29.2406 12.4313C27.9375 12.0281 24.9563 14.1094 24.9563 14.1094C23.7188 13.7625 22.3781 13.5844 21.0563 13.5844C19.7344 13.5844 18.3937 13.7625 17.1562 14.1094C17.1562 14.1094 14.175 12.0281 12.8719 12.4313C12.0188 14.5781 12.5438 16.2375 12.7125 16.65C11.7188 17.7469 11.25 18.6 11.25 20.3063C11.25 26.2688 14.7469 26.775 18.2156 27.1594C17.7656 27.5625 17.3625 28.2563 17.2219 29.25C16.3312 29.6531 14.0531 30.3469 12.6937 27.9469C11.8406 26.4656 10.3031 26.3438 10.3031 26.3438C8.78438 26.325 10.2 27.3 10.2 27.3C11.2125 27.7688 11.925 29.5687 11.925 29.5687C12.8344 32.3531 17.1844 31.4156 17.1844 31.4156C17.1844 32.7188 17.2031 34.8375 17.2031 35.2219C17.2031 35.625 16.9219 36.1125 16.125 35.9719C9.9375 33.9 5.60625 28.0125 5.60625 21.1312C5.60625 12.525 12.1875 5.99063 20.7938 5.99063C29.4 5.99063 36.375 12.525 36.375 21.1312C36.3844 28.0125 32.1844 33.9094 25.9969 35.9719ZM16.8 30.2438C16.6219 30.2812 16.4531 30.2062 16.4344 30.0844C16.4156 29.9437 16.5375 29.8219 16.7156 29.7844C16.8938 29.7656 17.0625 29.8406 17.0812 29.9625C17.1094 30.0844 16.9875 30.2063 16.8 30.2438ZM15.9094 30.1594C15.9094 30.2813 15.7687 30.3844 15.5812 30.3844C15.375 30.4031 15.2344 30.3 15.2344 30.1594C15.2344 30.0375 15.375 29.9344 15.5625 29.9344C15.7406 29.9156 15.9094 30.0188 15.9094 30.1594ZM14.625 30.0563C14.5875 30.1781 14.4 30.2344 14.2406 30.1781C14.0625 30.1406 13.9406 30 13.9781 29.8781C14.0156 29.7563 14.2031 29.7 14.3625 29.7375C14.55 29.7938 14.6719 29.9344 14.625 30.0563ZM13.4719 29.55C13.3875 29.6531 13.2094 29.6344 13.0687 29.4938C12.9281 29.3719 12.8906 29.1938 12.9844 29.1094C13.0688 29.0063 13.2469 29.025 13.3875 29.1656C13.5094 29.2875 13.5562 29.475 13.4719 29.55ZM12.6188 28.6969C12.5344 28.7531 12.375 28.6969 12.2719 28.5563C12.1687 28.4156 12.1687 28.2563 12.2719 28.1906C12.375 28.1063 12.5344 28.1719 12.6188 28.3125C12.7219 28.4531 12.7219 28.6219 12.6188 28.6969ZM12.0094 27.7875C11.925 27.8719 11.7844 27.825 11.6812 27.7312C11.5781 27.6094 11.5594 27.4687 11.6437 27.4031C11.7281 27.3187 11.8687 27.3656 11.9719 27.4594C12.075 27.5812 12.0938 27.7219 12.0094 27.7875ZM11.3813 27.0938C11.3438 27.1781 11.2219 27.1969 11.1187 27.1312C10.9969 27.075 10.9406 26.9719 10.9781 26.8875C11.0156 26.8312 11.1188 26.8031 11.2406 26.85C11.3625 26.9156 11.4187 27.0187 11.3813 27.0938Z" fill="white"/>
</svg>
