<svg width="48" height="53" viewBox="0 0 48 53" fill="none" xmlns="http://www.w3.org/2000/svg">
<g clip-path="url(#clip0)">
<path d="M24.0111 14.5958C17.1968 14.5958 11.7004 19.9061 11.7004 26.4897C11.7004 33.0733 17.1968 38.3836 24.0111 38.3836C30.8254 38.3836 36.3218 33.0733 36.3218 26.4897C36.3218 19.9061 30.8254 14.5958 24.0111 14.5958ZM24.0111 34.2223C19.6075 34.2223 16.0075 30.7545 16.0075 26.4897C16.0075 22.2249 19.5968 18.7571 24.0111 18.7571C28.4254 18.7571 32.0147 22.2249 32.0147 26.4897C32.0147 30.7545 28.4147 34.2223 24.0111 34.2223ZM39.6968 14.1092C39.6968 15.6516 38.4111 16.8834 36.8254 16.8834C35.229 16.8834 33.954 15.6413 33.954 14.1092C33.954 12.5772 35.2397 11.335 36.8254 11.335C38.4111 11.335 39.6968 12.5772 39.6968 14.1092ZM47.8504 16.9249C47.6683 13.2086 46.7897 9.91685 43.9718 7.20474C41.1647 4.49263 37.7575 3.6438 33.9111 3.45747C29.9468 3.24009 18.0647 3.24009 14.1004 3.45747C10.2647 3.63345 6.85755 4.48228 4.03969 7.19438C1.22184 9.90649 0.353978 13.1983 0.161121 16.9145C-0.0638794 20.7446 -0.0638794 32.2245 0.161121 36.0545C0.343263 39.7707 1.22184 43.0625 4.03969 45.7747C6.85755 48.4868 10.254 49.3356 14.1004 49.5219C18.0647 49.7393 29.9468 49.7393 33.9111 49.5219C37.7575 49.3459 41.1647 48.4971 43.9718 45.7747C46.779 43.0625 47.6576 39.7707 47.8504 36.0545C48.0754 32.2245 48.0754 20.7549 47.8504 16.9249ZM42.729 40.1641C41.8933 42.193 40.2754 43.7561 38.1647 44.5739C35.004 45.785 27.504 45.5055 24.0111 45.5055C20.5183 45.5055 13.0075 45.7747 9.85755 44.5739C7.75755 43.7665 6.13969 42.2034 5.29326 40.1641C4.03969 37.1104 4.32898 29.8643 4.32898 26.4897C4.32898 23.1151 4.05041 15.8586 5.29326 12.8153C6.12898 10.7864 7.74683 9.22329 9.85755 8.40552C13.0183 7.19438 20.5183 7.47388 24.0111 7.47388C27.504 7.47388 35.0147 7.20474 38.1647 8.40552C40.2647 9.21294 41.8825 10.776 42.729 12.8153C43.9825 15.869 43.6933 23.1151 43.6933 26.4897C43.6933 29.8643 43.9825 37.1208 42.729 40.1641Z" fill="white"/>
</g>
<defs>
<clipPath id="clip0">
<rect width="48" height="53" fill="white"/>
</clipPath>
</defs>
</svg>
