<svg width="50" height="58" viewBox="0 0 50 58" fill="none" xmlns="http://www.w3.org/2000/svg">
<path d="M35 34.4375C31.7969 34.4375 30.2567 36.25 25 36.25C19.7433 36.25 18.2143 34.4375 15 34.4375C6.71875 34.4375 0 41.257 0 49.6625V52.5625C0 55.5645 2.39955 58 5.35714 58H44.6429C47.6004 58 50 55.5645 50 52.5625V49.6625C50 41.257 43.2812 34.4375 35 34.4375ZM44.6429 52.5625H5.35714V49.6625C5.35714 44.2703 9.6875 39.875 15 39.875C16.6295 39.875 19.2746 41.6875 25 41.6875C30.7701 41.6875 33.3594 39.875 35 39.875C40.3125 39.875 44.6429 44.2703 44.6429 49.6625V52.5625ZM25 32.625C33.8728 32.625 41.0714 25.3184 41.0714 16.3125C41.0714 7.30664 33.8728 0 25 0C16.1272 0 8.92857 7.30664 8.92857 16.3125C8.92857 25.3184 16.1272 32.625 25 32.625ZM25 5.4375C30.904 5.4375 35.7143 10.3199 35.7143 16.3125C35.7143 22.3051 30.904 27.1875 25 27.1875C19.096 27.1875 14.2857 22.3051 14.2857 16.3125C14.2857 10.3199 19.096 5.4375 25 5.4375Z" fill="white"/>
</svg>
